{
    "asset" : {
        "generator" : "Khronos Blender glTF 2.0 I/O",
        "version" : "2.0"
    },
    "scene" : 0,
    "scenes" : [
        {
            "name" : "Scene",
            "nodes" : [
                0,
                1,
                2
            ]
        }
    ],
    "nodes" : [
        {
            "name" : "Light",
            "rotation" : [
                0.16907575726509094,
                0.7558803558349609,
                -0.27217137813568115,
                0.570947527885437
            ],
            "scale" : [
                0.9830881357192993,
                0.9830880761146545,
                0.9830882549285889
            ],
            "translation" : [
                4.071771621704102,
                5.871100902557373,
                -0.9550750255584717
            ]
        },
        {
            "name" : "Camera",
            "rotation" : [
                0.483536034822464,
                0.33687159419059753,
                -0.20870360732078552,
                0.7804827094078064
            ],
            "scale" : [
                0.9830881357192993,
                0.9830881357192993,
                0.9830881357192993
            ],
            "translation" : [
                7.2989020347595215,
                4.941539287567139,
                6.842037200927734
            ]
        },
        {
            "mesh" : 0,
            "name" : "Cube.008",
            "scale" : [
                0.03822669759392738,
                0.18762966990470886,
                0.1553630232810974
            ],
            "translation" : [
                0.5220911502838135,
                1.2977499961853027,
                0.375702828168869
            ]
        }
    ],
    "materials" : [
        {
            "name" : "Material",
            "pbrMetallicRoughness" : {
                "baseColorFactor" : [
                    0.800000011920929,
                    0.800000011920929,
                    0.800000011920929,
                    1
                ],
                "metallicFactor" : 0,
                "roughnessFactor" : 0.5
            }
        }
    ],
    "meshes" : [
        {
            "name" : "Cube.008",
            "primitives" : [
                {
                    "attributes" : {
                        "POSITION" : 0,
                        "NORMAL" : 1,
                        "TEXCOORD_0" : 2,
                        "COLOR_0" : 3
                    },
                    "indices" : 4,
                    "material" : 0
                }
            ]
        }
    ],
    "accessors" : [
        {
            "bufferView" : 0,
            "componentType" : 5126,
            "count" : 29268,
            "max" : [
                1.4692294597625732,
                4.772193908691406,
                1.8920416831970215
            ],
            "min" : [
                -22.934005737304688,
                -7.011244773864746,
                -6.310673236846924
            ],
            "type" : "VEC3"
        },
        {
            "bufferView" : 1,
            "componentType" : 5126,
            "count" : 29268,
            "type" : "VEC3"
        },
        {
            "bufferView" : 2,
            "componentType" : 5126,
            "count" : 29268,
            "type" : "VEC2"
        },
        {
            "bufferView" : 3,
            "componentType" : 5126,
            "count" : 29268,
            "type" : "VEC4"
        },
        {
            "bufferView" : 4,
            "componentType" : 5123,
            "count" : 29268,
            "type" : "SCALAR"
        }
    ],
    "bufferViews" : [
        {
            "buffer" : 0,
            "byteLength" : 351216,
            "byteOffset" : 0
        },
        {
            "buffer" : 0,
            "byteLength" : 351216,
            "byteOffset" : 351216
        },
        {
            "buffer" : 0,
            "byteLength" : 234144,
            "byteOffset" : 702432
        },
        {
            "buffer" : 0,
            "byteLength" : 468288,
            "byteOffset" : 936576
        },
        {
            "buffer" : 0,
            "byteLength" : 58536,
            "byteOffset" : 1404864
        }
    ],
    "buffers" : [
        {
            "byteLength" : 1463400,
            "uri" : "data:application/octet-stream;base64,"
        }
    ]
}
