{
    "asset" : {
        "generator" : "Khronos Blender glTF 2.0 I/O",
        "version" : "2.0"
    },
    "scene" : 0,
    "scenes" : [
        {
            "name" : "Scene",
            "nodes" : [
                0,
                1,
                2,
                3,
                4
            ]
        }
    ],
    "nodes" : [
        {
            "name" : "Light",
            "rotation" : [
                0.5232754945755005,
                0.3420339822769165,
                -0.7269423007965088,
                0.2841661870479584
            ],
            "scale" : [
                0.9830882549285889,
                0.9830883741378784,
                0.9830881953239441
            ],
            "translation" : [
                4.071771621704102,
                5.871101379394531,
                -0.9550743699073792
            ]
        },
        {
            "name" : "Light.001",
            "rotation" : [
                0.5232754945755005,
                0.3420339822769165,
                -0.7269423007965088,
                0.2841661870479584
            ],
            "scale" : [
                0.9830882549285889,
                0.9830883741378784,
                0.9830881953239441
            ],
            "translation" : [
                4.071771621704102,
                5.871101379394531,
                -0.9550743699073792
            ]
        },
        {
            "name" : "Camera",
            "rotation" : [
                0.8937962651252747,
                0.09062854945659637,
                -0.3857799172401428,
                0.20997293293476105
            ],
            "scale" : [
                0.9830881357192993,
                0.9830883145332336,
                0.9830881953239441
            ],
            "translation" : [
                7.2989020347595215,
                4.9415388107299805,
                6.842038631439209
            ]
        },
        {
            "mesh" : 0,
            "name" : "Cube.008",
            "rotation" : [
                0.7071068286895752,
                0,
                0,
                0.7071067094802856
            ],
            "scale" : [
                0.03822669759392738,
                0.1553630381822586,
                0.18762969970703125
            ],
            "translation" : [
                0.5220911502838135,
                1.2977501153945923,
                0.3757030665874481
            ]
        },
        {
            "name" : "Lamp",
            "rotation" : [
                0.16907575726509094,
                0.7558803558349609,
                -0.27217137813568115,
                0.570947527885437
            ],
            "translation" : [
                4.076245307922363,
                5.903861999511719,
                -1.0054539442062378
            ]
        }
    ],
    "materials" : [
        {
            "name" : "Material_COLOR_0.001",
            "pbrMetallicRoughness" : {
                "metallicFactor" : 0,
                "roughnessFactor" : 0.5
            }
        }
    ],
    "meshes" : [
        {
            "name" : "Cube.001",
            "primitives" : [
                {
                    "attributes" : {
                        "POSITION" : 0,
                        "NORMAL" : 1,
                        "TEXCOORD_0" : 2,
                        "COLOR_0" : 3
                    },
                    "indices" : 4,
                    "material" : 0
                }
            ]
        }
    ],
    "accessors" : [
        {
            "bufferView" : 0,
            "componentType" : 5126,
            "count" : 29268,
            "max" : [
                1.4692294597625732,
                1.8920416831970215,
                7.011244773864746
            ],
            "min" : [
                -22.934005737304688,
                -6.310673236846924,
                -4.772193908691406
            ],
            "type" : "VEC3"
        },
        {
            "bufferView" : 1,
            "componentType" : 5126,
            "count" : 29268,
            "type" : "VEC3"
        },
        {
            "bufferView" : 2,
            "componentType" : 5126,
            "count" : 29268,
            "type" : "VEC2"
        },
        {
            "bufferView" : 3,
            "componentType" : 5126,
            "count" : 29268,
            "type" : "VEC4"
        },
        {
            "bufferView" : 4,
            "componentType" : 5123,
            "count" : 29268,
            "type" : "SCALAR"
        }
    ],
    "bufferViews" : [
        {
            "buffer" : 0,
            "byteLength" : 351216,
            "byteOffset" : 0
        },
        {
            "buffer" : 0,
            "byteLength" : 351216,
            "byteOffset" : 351216
        },
        {
            "buffer" : 0,
            "byteLength" : 234144,
            "byteOffset" : 702432
        },
        {
            "buffer" : 0,
            "byteLength" : 468288,
            "byteOffset" : 936576
        },
        {
            "buffer" : 0,
            "byteLength" : 58536,
            "byteOffset" : 1404864
        }
    ],
    "buffers" : [
        {
            "byteLength" : 1463400,
            "uri" : "data:application/octet-stream;base64,"
        }
    ]
}
