{
    "asset" : {
        "generator" : "Khronos Blender glTF 2.0 I/O",
        "version" : "2.0"
    },
    "scene" : 0,
    "scenes" : [
        {
            "name" : "Scene",
            "nodes" : [
                0,
                1,
                2,
                3,
                4,
                5,
                6
            ]
        }
    ],
    "nodes" : [
        {
            "name" : "Light",
            "rotation" : [
                0.16907575726509094,
                0.7558803558349609,
                -0.27217137813568115,
                0.570947527885437
            ],
            "translation" : [
                4.076245307922363,
                5.903861999511719,
                -1.0054539442062378
            ]
        },
        {
            "name" : "Camera",
            "rotation" : [
                0.483536034822464,
                0.33687159419059753,
                -0.20870360732078552,
                0.7804827094078064
            ],
            "translation" : [
                7.358891487121582,
                4.958309173583984,
                6.925790786743164
            ]
        },
        {
            "name" : "Light.001",
            "rotation" : [
                -0.5709476470947266,
                0.2721712589263916,
                0.7558802962303162,
                0.16907574236392975
            ],
            "scale" : [
                0.983088493347168,
                0.9830883741378784,
                0.9830886125564575
            ],
            "translation" : [
                4.071771621704102,
                5.8711018562316895,
                -0.9550737142562866
            ]
        },
        {
            "name" : "Light.002",
            "rotation" : [
                -0.5709476470947266,
                0.2721712589263916,
                0.7558802962303162,
                0.16907574236392975
            ],
            "scale" : [
                0.983088493347168,
                0.9830883741378784,
                0.9830886125564575
            ],
            "translation" : [
                4.071771621704102,
                5.8711018562316895,
                -0.9550737142562866
            ]
        },
        {
            "name" : "Camera.001",
            "rotation" : [
                -0.7804827094078064,
                0.20870345830917358,
                0.3368717133998871,
                0.48353612422943115
            ],
            "scale" : [
                0.9830881953239441,
                0.983088493347168,
                0.9830887913703918
            ],
            "translation" : [
                7.2989020347595215,
                4.941538333892822,
                6.842040061950684
            ]
        },
        {
            "mesh" : 0,
            "name" : "Cube.008",
            "rotation" : [
                1,
                0,
                0,
                -1.3435884227419592e-07
            ],
            "scale" : [
                0.03822669759392738,
                0.18762971460819244,
                0.1553630381822586
            ],
            "translation" : [
                0.5220911502838135,
                1.2977502346038818,
                0.3757033050060272
            ]
        },
        {
            "name" : "Lamp",
            "rotation" : [
                0.5232754945755005,
                0.34203392267227173,
                -0.7269423604011536,
                0.284166157245636
            ],
            "translation" : [
                4.076245307922363,
                5.903862476348877,
                -1.0054532289505005
            ]
        }
    ],
    "materials" : [
        {
            "name" : "Material_COLOR_0.001_COLOR_0",
            "pbrMetallicRoughness" : {
                "metallicFactor" : 0,
                "roughnessFactor" : 0.5
            }
        }
    ],
    "meshes" : [
        {
            "name" : "Cube.009",
            "primitives" : [
                {
                    "attributes" : {
                        "POSITION" : 0,
                        "NORMAL" : 1,
                        "TEXCOORD_0" : 2,
                        "COLOR_0" : 3
                    },
                    "indices" : 4,
                    "material" : 0
                }
            ]
        }
    ],
    "accessors" : [
        {
            "bufferView" : 0,
            "componentType" : 5126,
            "count" : 29268,
            "max" : [
                1.4692294597625732,
                7.011244773864746,
                6.310673236846924
            ],
            "min" : [
                -22.934005737304688,
                -4.772193908691406,
                -1.8920416831970215
            ],
            "type" : "VEC3"
        },
        {
            "bufferView" : 1,
            "componentType" : 5126,
            "count" : 29268,
            "type" : "VEC3"
        },
        {
            "bufferView" : 2,
            "componentType" : 5126,
            "count" : 29268,
            "type" : "VEC2"
        },
        {
            "bufferView" : 3,
            "componentType" : 5126,
            "count" : 29268,
            "type" : "VEC4"
        },
        {
            "bufferView" : 4,
            "componentType" : 5123,
            "count" : 29268,
            "type" : "SCALAR"
        }
    ],
    "bufferViews" : [
        {
            "buffer" : 0,
            "byteLength" : 351216,
            "byteOffset" : 0
        },
        {
            "buffer" : 0,
            "byteLength" : 351216,
            "byteOffset" : 351216
        },
        {
            "buffer" : 0,
            "byteLength" : 234144,
            "byteOffset" : 702432
        },
        {
            "buffer" : 0,
            "byteLength" : 468288,
            "byteOffset" : 936576
        },
        {
            "buffer" : 0,
            "byteLength" : 58536,
            "byteOffset" : 1404864
        }
    ],
    "buffers" : [
        {
            "byteLength" : 1463400,
            "uri" : "lightfridge.bin"
        }
    ]
}
