{
    "asset" : {
        "generator" : "Khronos Blender glTF 2.0 I/O",
        "version" : "2.0"
    },
    "scene" : 0,
    "scenes" : [
        {
            "name" : "Scene",
            "nodes" : [
                0,
                1,
                2,
                3,
                4,
                5,
                6,
                7,
                8,
                9,
                10
            ]
        }
    ],
    "nodes" : [
        {
            "mesh" : 0,
            "name" : "Cube",
            "scale" : [
                0.5593158006668091,
                0.4754750728607178,
                1
            ],
            "translation" : [
                0,
                0.47108983993530273,
                0
            ]
        },
        {
            "name" : "Light",
            "rotation" : [
                0.16907575726509094,
                0.7558803558349609,
                -0.27217137813568115,
                0.570947527885437
            ],
            "translation" : [
                4.076245307922363,
                5.903861999511719,
                -1.0054539442062378
            ]
        },
        {
            "name" : "Camera",
            "rotation" : [
                0.483536034822464,
                0.33687159419059753,
                -0.20870360732078552,
                0.7804827094078064
            ],
            "translation" : [
                7.358891487121582,
                4.958309173583984,
                6.925790786743164
            ]
        },
        {
            "mesh" : 1,
            "name" : "Cube.001",
            "scale" : [
                0.012966345064342022,
                0.4803866744041443,
                0.7446723580360413
            ],
            "translation" : [
                0.5815403461456299,
                0.46683982014656067,
                0.24616596102714539
            ]
        },
        {
            "mesh" : 2,
            "name" : "Cube.002",
            "scale" : [
                0.012966345064342022,
                0.26107197999954224,
                0.9408787488937378
            ],
            "translation" : [
                0.5837094187736511,
                0.4125283658504486,
                0.0060914307832717896
            ]
        },
        {
            "mesh" : 3,
            "name" : "Cube.003",
            "scale" : [
                0.012966345064342022,
                0.4803866744041443,
                0.23581001162528992
            ],
            "translation" : [
                0.5784144401550293,
                0.4641570746898651,
                -0.7498541474342346
            ]
        },
        {
            "mesh" : 4,
            "name" : "Cube.004",
            "scale" : [
                0.012966345064342022,
                0.1959669440984726,
                0.6308704614639282
            ],
            "translation" : [
                0.5927095413208008,
                0.3825627565383911,
                0.28230026364326477
            ]
        },
        {
            "mesh" : 5,
            "name" : "Cube.005",
            "scale" : [
                0.03036469779908657,
                0.3197256028652191,
                -0.023184029385447502
            ],
            "translation" : [
                0.6130828261375427,
                0.4245753288269043,
                -0.45853203535079956
            ]
        },
        {
            "mesh" : 6,
            "name" : "Cube.006",
            "scale" : [
                0.012966345064342022,
                0.14253370463848114,
                0.1457321047782898
            ],
            "translation" : [
                0.5993544459342957,
                0.33160603046417236,
                -0.7193336486816406
            ]
        },
        {
            "mesh" : 7,
            "name" : "Cube.007",
            "scale" : [
                0.012966345064342022,
                0.05050075054168701,
                0.1457321047782898
            ],
            "translation" : [
                0.5635979175567627,
                0.5631805658340454,
                -0.7266676425933838
            ]
        },
        {
            "mesh" : 8,
            "name" : "Cube.008",
            "scale" : [
                0.012966345064342022,
                0.038582053035497665,
                0.1457321047782898
            ],
            "translation" : [
                0.5918470621109009,
                0.5206621885299683,
                -0.7200332283973694
            ]
        }
    ],
    "materials" : [
        {
            "name" : "Material",
            "pbrMetallicRoughness" : {
                "baseColorFactor" : [
                    0.800000011920929,
                    0.800000011920929,
                    0.800000011920929,
                    1
                ],
                "metallicFactor" : 0,
                "roughnessFactor" : 0.5
            }
        }
    ],
    "meshes" : [
        {
            "name" : "Cube",
            "primitives" : [
                {
                    "attributes" : {
                        "POSITION" : 0,
                        "NORMAL" : 1,
                        "TEXCOORD_0" : 2,
                        "COLOR_0" : 3
                    },
                    "indices" : 4,
                    "material" : 0
                }
            ]
        },
        {
            "name" : "Cube.001",
            "primitives" : [
                {
                    "attributes" : {
                        "POSITION" : 5,
                        "NORMAL" : 6,
                        "TEXCOORD_0" : 7,
                        "COLOR_0" : 8
                    },
                    "indices" : 4,
                    "material" : 0
                }
            ]
        },
        {
            "name" : "Cube.002",
            "primitives" : [
                {
                    "attributes" : {
                        "POSITION" : 9,
                        "NORMAL" : 10,
                        "TEXCOORD_0" : 11,
                        "COLOR_0" : 12
                    },
                    "indices" : 4,
                    "material" : 0
                }
            ]
        },
        {
            "name" : "Cube.003",
            "primitives" : [
                {
                    "attributes" : {
                        "POSITION" : 13,
                        "NORMAL" : 14,
                        "TEXCOORD_0" : 15,
                        "COLOR_0" : 16
                    },
                    "indices" : 4,
                    "material" : 0
                }
            ]
        },
        {
            "name" : "Cube.004",
            "primitives" : [
                {
                    "attributes" : {
                        "POSITION" : 17,
                        "NORMAL" : 18,
                        "TEXCOORD_0" : 19,
                        "COLOR_0" : 20
                    },
                    "indices" : 4,
                    "material" : 0
                }
            ]
        },
        {
            "name" : "Cube.005",
            "primitives" : [
                {
                    "attributes" : {
                        "POSITION" : 21,
                        "NORMAL" : 22,
                        "TEXCOORD_0" : 23,
                        "COLOR_0" : 24
                    },
                    "indices" : 4,
                    "material" : 0
                }
            ]
        },
        {
            "name" : "Cube.006",
            "primitives" : [
                {
                    "attributes" : {
                        "POSITION" : 25,
                        "NORMAL" : 26,
                        "TEXCOORD_0" : 27,
                        "COLOR_0" : 28
                    },
                    "indices" : 4,
                    "material" : 0
                }
            ]
        },
        {
            "name" : "Cube.007",
            "primitives" : [
                {
                    "attributes" : {
                        "POSITION" : 29,
                        "NORMAL" : 30,
                        "TEXCOORD_0" : 31,
                        "COLOR_0" : 32
                    },
                    "indices" : 4,
                    "material" : 0
                }
            ]
        },
        {
            "name" : "Cube.008",
            "primitives" : [
                {
                    "attributes" : {
                        "POSITION" : 33,
                        "NORMAL" : 34,
                        "TEXCOORD_0" : 35,
                        "COLOR_0" : 36
                    },
                    "indices" : 4,
                    "material" : 0
                }
            ]
        }
    ],
    "accessors" : [
        {
            "bufferView" : 0,
            "componentType" : 5126,
            "count" : 36,
            "max" : [
                1,
                1,
                1
            ],
            "min" : [
                -1,
                -1,
                -1
            ],
            "type" : "VEC3"
        },
        {
            "bufferView" : 1,
            "componentType" : 5126,
            "count" : 36,
            "type" : "VEC3"
        },
        {
            "bufferView" : 2,
            "componentType" : 5126,
            "count" : 36,
            "type" : "VEC2"
        },
        {
            "bufferView" : 3,
            "componentType" : 5126,
            "count" : 36,
            "type" : "VEC4"
        },
        {
            "bufferView" : 4,
            "componentType" : 5123,
            "count" : 36,
            "type" : "SCALAR"
        },
        {
            "bufferView" : 5,
            "componentType" : 5126,
            "count" : 36,
            "max" : [
                1,
                1,
                1
            ],
            "min" : [
                -1,
                -1,
                -1
            ],
            "type" : "VEC3"
        },
        {
            "bufferView" : 6,
            "componentType" : 5126,
            "count" : 36,
            "type" : "VEC3"
        },
        {
            "bufferView" : 7,
            "componentType" : 5126,
            "count" : 36,
            "type" : "VEC2"
        },
        {
            "bufferView" : 8,
            "componentType" : 5126,
            "count" : 36,
            "type" : "VEC4"
        },
        {
            "bufferView" : 9,
            "componentType" : 5126,
            "count" : 36,
            "max" : [
                1,
                1,
                1
            ],
            "min" : [
                -1,
                -1,
                -1
            ],
            "type" : "VEC3"
        },
        {
            "bufferView" : 10,
            "componentType" : 5126,
            "count" : 36,
            "type" : "VEC3"
        },
        {
            "bufferView" : 11,
            "componentType" : 5126,
            "count" : 36,
            "type" : "VEC2"
        },
        {
            "bufferView" : 12,
            "componentType" : 5126,
            "count" : 36,
            "type" : "VEC4"
        },
        {
            "bufferView" : 13,
            "componentType" : 5126,
            "count" : 36,
            "max" : [
                1,
                1,
                1
            ],
            "min" : [
                -1,
                -1,
                -1
            ],
            "type" : "VEC3"
        },
        {
            "bufferView" : 14,
            "componentType" : 5126,
            "count" : 36,
            "type" : "VEC3"
        },
        {
            "bufferView" : 15,
            "componentType" : 5126,
            "count" : 36,
            "type" : "VEC2"
        },
        {
            "bufferView" : 16,
            "componentType" : 5126,
            "count" : 36,
            "type" : "VEC4"
        },
        {
            "bufferView" : 17,
            "componentType" : 5126,
            "count" : 36,
            "max" : [
                1,
                1,
                1
            ],
            "min" : [
                -1,
                -1,
                -1
            ],
            "type" : "VEC3"
        },
        {
            "bufferView" : 18,
            "componentType" : 5126,
            "count" : 36,
            "type" : "VEC3"
        },
        {
            "bufferView" : 19,
            "componentType" : 5126,
            "count" : 36,
            "type" : "VEC2"
        },
        {
            "bufferView" : 20,
            "componentType" : 5126,
            "count" : 36,
            "type" : "VEC4"
        },
        {
            "bufferView" : 21,
            "componentType" : 5126,
            "count" : 36,
            "max" : [
                1,
                1,
                1
            ],
            "min" : [
                -1,
                -1,
                -1
            ],
            "type" : "VEC3"
        },
        {
            "bufferView" : 22,
            "componentType" : 5126,
            "count" : 36,
            "type" : "VEC3"
        },
        {
            "bufferView" : 23,
            "componentType" : 5126,
            "count" : 36,
            "type" : "VEC2"
        },
        {
            "bufferView" : 24,
            "componentType" : 5126,
            "count" : 36,
            "type" : "VEC4"
        },
        {
            "bufferView" : 25,
            "componentType" : 5126,
            "count" : 36,
            "max" : [
                1,
                1,
                1
            ],
            "min" : [
                -1,
                -1,
                -1
            ],
            "type" : "VEC3"
        },
        {
            "bufferView" : 26,
            "componentType" : 5126,
            "count" : 36,
            "type" : "VEC3"
        },
        {
            "bufferView" : 27,
            "componentType" : 5126,
            "count" : 36,
            "type" : "VEC2"
        },
        {
            "bufferView" : 28,
            "componentType" : 5126,
            "count" : 36,
            "type" : "VEC4"
        },
        {
            "bufferView" : 29,
            "componentType" : 5126,
            "count" : 36,
            "max" : [
                1,
                1,
                1
            ],
            "min" : [
                -1,
                -1,
                -1
            ],
            "type" : "VEC3"
        },
        {
            "bufferView" : 30,
            "componentType" : 5126,
            "count" : 36,
            "type" : "VEC3"
        },
        {
            "bufferView" : 31,
            "componentType" : 5126,
            "count" : 36,
            "type" : "VEC2"
        },
        {
            "bufferView" : 32,
            "componentType" : 5126,
            "count" : 36,
            "type" : "VEC4"
        },
        {
            "bufferView" : 33,
            "componentType" : 5126,
            "count" : 36,
            "max" : [
                1,
                1,
                1
            ],
            "min" : [
                -1,
                -1,
                -1
            ],
            "type" : "VEC3"
        },
        {
            "bufferView" : 34,
            "componentType" : 5126,
            "count" : 36,
            "type" : "VEC3"
        },
        {
            "bufferView" : 35,
            "componentType" : 5126,
            "count" : 36,
            "type" : "VEC2"
        },
        {
            "bufferView" : 36,
            "componentType" : 5126,
            "count" : 36,
            "type" : "VEC4"
        }
    ],
    "bufferViews" : [
        {
            "buffer" : 0,
            "byteLength" : 432,
            "byteOffset" : 0
        },
        {
            "buffer" : 0,
            "byteLength" : 432,
            "byteOffset" : 432
        },
        {
            "buffer" : 0,
            "byteLength" : 288,
            "byteOffset" : 864
        },
        {
            "buffer" : 0,
            "byteLength" : 576,
            "byteOffset" : 1152
        },
        {
            "buffer" : 0,
            "byteLength" : 72,
            "byteOffset" : 1728
        },
        {
            "buffer" : 0,
            "byteLength" : 432,
            "byteOffset" : 1800
        },
        {
            "buffer" : 0,
            "byteLength" : 432,
            "byteOffset" : 2232
        },
        {
            "buffer" : 0,
            "byteLength" : 288,
            "byteOffset" : 2664
        },
        {
            "buffer" : 0,
            "byteLength" : 576,
            "byteOffset" : 2952
        },
        {
            "buffer" : 0,
            "byteLength" : 432,
            "byteOffset" : 3528
        },
        {
            "buffer" : 0,
            "byteLength" : 432,
            "byteOffset" : 3960
        },
        {
            "buffer" : 0,
            "byteLength" : 288,
            "byteOffset" : 4392
        },
        {
            "buffer" : 0,
            "byteLength" : 576,
            "byteOffset" : 4680
        },
        {
            "buffer" : 0,
            "byteLength" : 432,
            "byteOffset" : 5256
        },
        {
            "buffer" : 0,
            "byteLength" : 432,
            "byteOffset" : 5688
        },
        {
            "buffer" : 0,
            "byteLength" : 288,
            "byteOffset" : 6120
        },
        {
            "buffer" : 0,
            "byteLength" : 576,
            "byteOffset" : 6408
        },
        {
            "buffer" : 0,
            "byteLength" : 432,
            "byteOffset" : 6984
        },
        {
            "buffer" : 0,
            "byteLength" : 432,
            "byteOffset" : 7416
        },
        {
            "buffer" : 0,
            "byteLength" : 288,
            "byteOffset" : 7848
        },
        {
            "buffer" : 0,
            "byteLength" : 576,
            "byteOffset" : 8136
        },
        {
            "buffer" : 0,
            "byteLength" : 432,
            "byteOffset" : 8712
        },
        {
            "buffer" : 0,
            "byteLength" : 432,
            "byteOffset" : 9144
        },
        {
            "buffer" : 0,
            "byteLength" : 288,
            "byteOffset" : 9576
        },
        {
            "buffer" : 0,
            "byteLength" : 576,
            "byteOffset" : 9864
        },
        {
            "buffer" : 0,
            "byteLength" : 432,
            "byteOffset" : 10440
        },
        {
            "buffer" : 0,
            "byteLength" : 432,
            "byteOffset" : 10872
        },
        {
            "buffer" : 0,
            "byteLength" : 288,
            "byteOffset" : 11304
        },
        {
            "buffer" : 0,
            "byteLength" : 576,
            "byteOffset" : 11592
        },
        {
            "buffer" : 0,
            "byteLength" : 432,
            "byteOffset" : 12168
        },
        {
            "buffer" : 0,
            "byteLength" : 432,
            "byteOffset" : 12600
        },
        {
            "buffer" : 0,
            "byteLength" : 288,
            "byteOffset" : 13032
        },
        {
            "buffer" : 0,
            "byteLength" : 576,
            "byteOffset" : 13320
        },
        {
            "buffer" : 0,
            "byteLength" : 432,
            "byteOffset" : 13896
        },
        {
            "buffer" : 0,
            "byteLength" : 432,
            "byteOffset" : 14328
        },
        {
            "buffer" : 0,
            "byteLength" : 288,
            "byteOffset" : 14760
        },
        {
            "buffer" : 0,
            "byteLength" : 576,
            "byteOffset" : 15048
        }
    ],
    "buffers" : [
        {
            "byteLength" : 15624,
            "uri" : "data:application/octet-stream;base64,"
        }
    ]
}
