{
  "accessors": [
    {
      "bufferView": 2,
      "componentType": 5126,
      "count": 28356,
      "max": [
        1.4692294597625732,
        1.8920416831970215,
        7.0112447738647461
      ],
      "min": [
        -22.934005737304688,
        -6.3106732368469238,
        -4.7721939086914062
      ],
      "type": "VEC3"
    },
    {
      "bufferView": 2,
      "byteOffset": 340272,
      "componentType": 5126,
      "count": 28356,
      "max": [
        1,
        1,
        1
      ],
      "min": [
        -1,
        -1,
        -1
      ],
      "type": "VEC3"
    },
    {
      "bufferView": 3,
      "componentType": 5126,
      "count": 28356,
      "max": [
        1,
        0.99999970197677612,
        1,
        1
      ],
      "min": [
        -1,
        -0.99998903274536133,
        -1,
        -1
      ],
      "type": "VEC4"
    },
    {
      "bufferView": 3,
      "byteOffset": 453696,
      "componentType": 5126,
      "count": 28356,
      "max": [
        0.27450981736183167,
        0.27450981736183167,
        0.27450981736183167,
        1
      ],
      "min": [
        0.08235294371843338,
        0.062745101749897003,
        0.039215687662363052,
        1
      ],
      "type": "VEC4"
    },
    {
      "bufferView": 1,
      "componentType": 5126,
      "count": 28356,
      "max": [
        0.87500005960464478,
        1.0000656843185425
      ],
      "min": [
        0.125,
        0
      ],
      "type": "VEC2"
    },
    {
      "bufferView": 0,
      "componentType": 5125,
      "count": 29268,
      "max": [
        28355
      ],
      "min": [
        0
      ],
      "type": "SCALAR"
    }
  ],
  "asset": {
    "extras": {
      "author": "devincitechsolutions (https://sketchfab.com/devincitechsolutions)",
      "license": "CC-BY-4.0 (http://creativecommons.org/licenses/by/4.0/)",
      "source": "https://sketchfab.com/3d-models/lightfridge-d18511d038084af59798972e8b46e8ed",
      "title": "Lightfridge"
    },
    "generator": "Sketchfab-4.92.0",
    "version": "2.0"
  },
  "bufferViews": [
    {
      "buffer": 0,
      "byteLength": 117072,
      "byteOffset": 0,
      "name": "floatBufferViews",
      "target": 34963
    },
    {
      "buffer": 0,
      "byteLength": 226848,
      "byteOffset": 117072,
      "byteStride": 8,
      "name": "floatBufferViews",
      "target": 34962
    },
    {
      "buffer": 0,
      "byteLength": 680544,
      "byteOffset": 343920,
      "byteStride": 12,
      "name": "floatBufferViews",
      "target": 34962
    },
    {
      "buffer": 0,
      "byteLength": 907392,
      "byteOffset": 1024464,
      "byteStride": 16,
      "name": "floatBufferViews",
      "target": 34962
    }
  ],
  "buffers": [
    {
      "byteLength": 1931856,
      "uri": "scene.bin"
    }
  ],
  "materials": [
    {
      "doubleSided": false,
      "emissiveFactor": [
        0,
        0,
        0
      ],
      "name": "Material_COLOR_0.001",
      "pbrMetallicRoughness": {
        "baseColorFactor": [
          1,
          1,
          1,
          1
        ],
        "metallicFactor": 0,
        "roughnessFactor": 0.5
      }
    }
  ],
  "meshes": [
    {
      "primitives": [
        {
          "attributes": {
            "COLOR_0": 3,
            "NORMAL": 1,
            "POSITION": 0,
            "TANGENT": 2,
            "TEXCOORD_0": 4
          },
          "indices": 5,
          "material": 0,
          "mode": 4
        }
      ]
    }
  ],
  "nodes": [
    {
      "children": [
        1
      ],
      "name": "RootNode (gltf orientation matrix)",
      "rotation": [
        -0.70710678118654746,
        -0,
        -0,
        0.70710678118654757
      ]
    },
    {
      "children": [
        2
      ],
      "name": "RootNode (model correction matrix)"
    },
    {
      "children": [
        3
      ],
      "name": "root"
    },
    {
      "children": [
        4
      ],
      "matrix": [
        1,
        0,
        0,
        0,
        0,
        2.2204460492503131e-16,
        1,
        0,
        0,
        -1,
        2.2204460492503131e-16,
        0,
        0,
        0,
        0,
        1
      ],
      "name": "GLTF_SceneRootNode"
    },
    {
      "children": [
        5
      ],
      "matrix": [
        0.038226697593927383,
        0,
        0,
        0,
        0,
        -2.6192250186513969e-08,
        0.15536303818225639,
        0,
        0,
        -0.18762969970702859,
        -3.1632002660644706e-08,
        0,
        0.52209115028381348,
        1.2977501153945923,
        0.37570306658744812,
        1
      ],
      "name": "Cube.008_3"
    },
    {
      "mesh": 0,
      "name": ""
    }
  ],
  "scene": 0,
  "scenes": [
    {
      "name": "OSG_Scene",
      "nodes": [
        0
      ]
    }
  ]
}

