{
    "asset" : {
        "generator" : "Khronos Blender glTF 2.0 I/O",
        "version" : "2.0"
    },
    "scene" : 0,
    "scenes" : [
        {
            "name" : "Scene",
            "nodes" : [
                0,
                1,
                2,
                3,
                4,
                5,
                6,
                7,
                8,
                9,
                10,
                11,
                12
            ]
        }
    ],
    "nodes" : [
        {
            "name" : "Light",
            "rotation" : [
                0.16907575726509094,
                0.7558803558349609,
                -0.27217137813568115,
                0.570947527885437
            ],
            "translation" : [
                4.076245307922363,
                5.903861999511719,
                -1.0054539442062378
            ]
        },
        {
            "name" : "Camera",
            "rotation" : [
                0.483536034822464,
                0.33687159419059753,
                -0.20870360732078552,
                0.7804827094078064
            ],
            "translation" : [
                7.358891487121582,
                4.958309173583984,
                6.925790786743164
            ]
        },
        {
            "mesh" : 0,
            "name" : "Cube.001",
            "rotation" : [
                0.4992765784263611,
                -0.5007224082946777,
                0.5007225275039673,
                0.4992764890193939
            ],
            "scale" : [
                0.5593158006668091,
                1,
                0.47547513246536255
            ],
            "translation" : [
                0.2086676061153412,
                0.4710898995399475,
                -0.8391457200050354
            ]
        },
        {
            "name" : "Light.001",
            "rotation" : [
                0.5232754945755005,
                0.34203392267227173,
                -0.7269423604011536,
                0.284166157245636
            ],
            "translation" : [
                4.076245307922363,
                5.903862476348877,
                -1.0054532289505005
            ]
        },
        {
            "name" : "Camera.001",
            "rotation" : [
                0.8937963247299194,
                0.09062855690717697,
                -0.3857799172401428,
                0.20997287333011627
            ],
            "translation" : [
                7.358891487121582,
                4.958308696746826,
                6.925792217254639
            ]
        },
        {
            "mesh" : 1,
            "name" : "Cube.002",
            "rotation" : [
                0.4992765784263611,
                -0.5007224082946777,
                0.5007225275039673,
                0.4992764890193939
            ],
            "scale" : [
                0.012966345064342022,
                0.744672417640686,
                0.48038673400878906
            ],
            "translation" : [
                -0.039179086685180664,
                0.46683984994888306,
                -0.2583196759223938
            ]
        },
        {
            "mesh" : 2,
            "name" : "Cube.003",
            "rotation" : [
                0.4992765784263611,
                -0.5007224082946777,
                0.5007225275039673,
                0.4992764890193939
            ],
            "scale" : [
                0.012966345064342022,
                0.9408788681030273,
                0.2610720098018646
            ],
            "translation" : [
                0.2008882462978363,
                0.4125284254550934,
                -0.2554563879966736
            ]
        },
        {
            "mesh" : 3,
            "name" : "Cube.004",
            "rotation" : [
                0.4992765784263611,
                -0.5007224082946777,
                0.5007225275039673,
                0.4992764890193939
            ],
            "scale" : [
                0.012966345064342022,
                0.2358100414276123,
                0.48038673400878906
            ],
            "translation" : [
                0.9568459987640381,
                0.46415722370147705,
                -0.2585652768611908
            ]
        },
        {
            "mesh" : 4,
            "name" : "Cube.005",
            "rotation" : [
                0.4992765784263611,
                -0.5007224678993225,
                0.5007225275039673,
                0.4992765188217163
            ],
            "scale" : [
                0.012966345064342022,
                0.630870521068573,
                0.19596697390079498
            ],
            "translation" : [
                -0.07534551620483398,
                0.3825627863407135,
                -0.24725502729415894
            ]
        },
        {
            "mesh" : 5,
            "name" : "Cube.006",
            "rotation" : [
                0.5007225275039673,
                -0.4992764890193939,
                -0.4992765784263611,
                -0.5007224082946777
            ],
            "scale" : [
                -0.03036469779908657,
                -0.02318403124809265,
                -0.3197256326675415
            ],
            "translation" : [
                0.6654248833656311,
                0.42457544803619385,
                -0.22473949193954468
            ]
        },
        {
            "mesh" : 6,
            "name" : "Cube.007",
            "rotation" : [
                0.4992765784263611,
                -0.5007224082946777,
                0.5007225275039673,
                0.4992764890193939
            ],
            "scale" : [
                0.012966345064342022,
                0.145732119679451,
                0.14253371953964233
            ],
            "translation" : [
                0.9262650609016418,
                0.3316061496734619,
                -0.23771360516548157
            ]
        },
        {
            "mesh" : 7,
            "name" : "Cube.008",
            "rotation" : [
                0.4992765784263611,
                -0.5007224082946777,
                0.5007225275039673,
                0.4992764890193939
            ],
            "scale" : [
                0.012966345064342022,
                0.145732119679451,
                0.05050075799226761
            ],
            "translation" : [
                0.9337024688720703,
                0.5631807446479797,
                -0.27344879508018494
            ]
        },
        {
            "mesh" : 8,
            "name" : "Cube.009",
            "rotation" : [
                0.4992765784263611,
                -0.5007224082946777,
                0.5007225275039673,
                0.4992764890193939
            ],
            "scale" : [
                0.012966345064342022,
                0.145732119679451,
                0.038582056760787964
            ],
            "translation" : [
                0.9269863367080688,
                0.5206623673439026,
                -0.2452189326286316
            ]
        }
    ],
    "materials" : [
        {
            "name" : "Material_COLOR_0",
            "pbrMetallicRoughness" : {
                "metallicFactor" : 0,
                "roughnessFactor" : 0.5
            }
        }
    ],
    "meshes" : [
        {
            "name" : "Cube.001",
            "primitives" : [
                {
                    "attributes" : {
                        "POSITION" : 0,
                        "NORMAL" : 1,
                        "TEXCOORD_0" : 2,
                        "COLOR_0" : 3
                    },
                    "indices" : 4,
                    "material" : 0
                }
            ]
        },
        {
            "name" : "Cube.002",
            "primitives" : [
                {
                    "attributes" : {
                        "POSITION" : 5,
                        "NORMAL" : 6,
                        "TEXCOORD_0" : 7,
                        "COLOR_0" : 8
                    },
                    "indices" : 4,
                    "material" : 0
                }
            ]
        },
        {
            "name" : "Cube.003",
            "primitives" : [
                {
                    "attributes" : {
                        "POSITION" : 9,
                        "NORMAL" : 10,
                        "TEXCOORD_0" : 11,
                        "COLOR_0" : 12
                    },
                    "indices" : 4,
                    "material" : 0
                }
            ]
        },
        {
            "name" : "Cube.004",
            "primitives" : [
                {
                    "attributes" : {
                        "POSITION" : 13,
                        "NORMAL" : 14,
                        "TEXCOORD_0" : 15,
                        "COLOR_0" : 16
                    },
                    "indices" : 4,
                    "material" : 0
                }
            ]
        },
        {
            "name" : "Cube.005",
            "primitives" : [
                {
                    "attributes" : {
                        "POSITION" : 17,
                        "NORMAL" : 18,
                        "TEXCOORD_0" : 19,
                        "COLOR_0" : 20
                    },
                    "indices" : 4,
                    "material" : 0
                }
            ]
        },
        {
            "name" : "Cube.006",
            "primitives" : [
                {
                    "attributes" : {
                        "POSITION" : 21,
                        "NORMAL" : 22,
                        "TEXCOORD_0" : 23,
                        "COLOR_0" : 24
                    },
                    "indices" : 4,
                    "material" : 0
                }
            ]
        },
        {
            "name" : "Cube.007",
            "primitives" : [
                {
                    "attributes" : {
                        "POSITION" : 25,
                        "NORMAL" : 26,
                        "TEXCOORD_0" : 27,
                        "COLOR_0" : 28
                    },
                    "indices" : 4,
                    "material" : 0
                }
            ]
        },
        {
            "name" : "Cube.008",
            "primitives" : [
                {
                    "attributes" : {
                        "POSITION" : 29,
                        "NORMAL" : 30,
                        "TEXCOORD_0" : 31,
                        "COLOR_0" : 32
                    },
                    "indices" : 4,
                    "material" : 0
                }
            ]
        },
        {
            "name" : "Cube.009",
            "primitives" : [
                {
                    "attributes" : {
                        "POSITION" : 33,
                        "NORMAL" : 34,
                        "TEXCOORD_0" : 35,
                        "COLOR_0" : 36
                    },
                    "indices" : 4,
                    "material" : 0
                }
            ]
        }
    ],
    "accessors" : [
        {
            "bufferView" : 0,
            "componentType" : 5126,
            "count" : 36,
            "max" : [
                1,
                1,
                1
            ],
            "min" : [
                -1,
                -1,
                -1
            ],
            "type" : "VEC3"
        },
        {
            "bufferView" : 1,
            "componentType" : 5126,
            "count" : 36,
            "type" : "VEC3"
        },
        {
            "bufferView" : 2,
            "componentType" : 5126,
            "count" : 36,
            "type" : "VEC2"
        },
        {
            "bufferView" : 3,
            "componentType" : 5126,
            "count" : 36,
            "type" : "VEC4"
        },
        {
            "bufferView" : 4,
            "componentType" : 5123,
            "count" : 36,
            "type" : "SCALAR"
        },
        {
            "bufferView" : 5,
            "componentType" : 5126,
            "count" : 36,
            "max" : [
                1,
                1,
                1
            ],
            "min" : [
                -1,
                -1,
                -1
            ],
            "type" : "VEC3"
        },
        {
            "bufferView" : 6,
            "componentType" : 5126,
            "count" : 36,
            "type" : "VEC3"
        },
        {
            "bufferView" : 7,
            "componentType" : 5126,
            "count" : 36,
            "type" : "VEC2"
        },
        {
            "bufferView" : 8,
            "componentType" : 5126,
            "count" : 36,
            "type" : "VEC4"
        },
        {
            "bufferView" : 9,
            "componentType" : 5126,
            "count" : 36,
            "max" : [
                1,
                1,
                1
            ],
            "min" : [
                -1,
                -1,
                -1
            ],
            "type" : "VEC3"
        },
        {
            "bufferView" : 10,
            "componentType" : 5126,
            "count" : 36,
            "type" : "VEC3"
        },
        {
            "bufferView" : 11,
            "componentType" : 5126,
            "count" : 36,
            "type" : "VEC2"
        },
        {
            "bufferView" : 12,
            "componentType" : 5126,
            "count" : 36,
            "type" : "VEC4"
        },
        {
            "bufferView" : 13,
            "componentType" : 5126,
            "count" : 36,
            "max" : [
                1,
                1,
                1
            ],
            "min" : [
                -1,
                -1,
                -1
            ],
            "type" : "VEC3"
        },
        {
            "bufferView" : 14,
            "componentType" : 5126,
            "count" : 36,
            "type" : "VEC3"
        },
        {
            "bufferView" : 15,
            "componentType" : 5126,
            "count" : 36,
            "type" : "VEC2"
        },
        {
            "bufferView" : 16,
            "componentType" : 5126,
            "count" : 36,
            "type" : "VEC4"
        },
        {
            "bufferView" : 17,
            "componentType" : 5126,
            "count" : 36,
            "max" : [
                1,
                1,
                1
            ],
            "min" : [
                -1,
                -1,
                -1
            ],
            "type" : "VEC3"
        },
        {
            "bufferView" : 18,
            "componentType" : 5126,
            "count" : 36,
            "type" : "VEC3"
        },
        {
            "bufferView" : 19,
            "componentType" : 5126,
            "count" : 36,
            "type" : "VEC2"
        },
        {
            "bufferView" : 20,
            "componentType" : 5126,
            "count" : 36,
            "type" : "VEC4"
        },
        {
            "bufferView" : 21,
            "componentType" : 5126,
            "count" : 36,
            "max" : [
                1,
                1,
                1
            ],
            "min" : [
                -1,
                -1,
                -1
            ],
            "type" : "VEC3"
        },
        {
            "bufferView" : 22,
            "componentType" : 5126,
            "count" : 36,
            "type" : "VEC3"
        },
        {
            "bufferView" : 23,
            "componentType" : 5126,
            "count" : 36,
            "type" : "VEC2"
        },
        {
            "bufferView" : 24,
            "componentType" : 5126,
            "count" : 36,
            "type" : "VEC4"
        },
        {
            "bufferView" : 25,
            "componentType" : 5126,
            "count" : 36,
            "max" : [
                1,
                1,
                1
            ],
            "min" : [
                -1,
                -1,
                -1
            ],
            "type" : "VEC3"
        },
        {
            "bufferView" : 26,
            "componentType" : 5126,
            "count" : 36,
            "type" : "VEC3"
        },
        {
            "bufferView" : 27,
            "componentType" : 5126,
            "count" : 36,
            "type" : "VEC2"
        },
        {
            "bufferView" : 28,
            "componentType" : 5126,
            "count" : 36,
            "type" : "VEC4"
        },
        {
            "bufferView" : 29,
            "componentType" : 5126,
            "count" : 36,
            "max" : [
                1,
                1,
                1
            ],
            "min" : [
                -1,
                -1,
                -1
            ],
            "type" : "VEC3"
        },
        {
            "bufferView" : 30,
            "componentType" : 5126,
            "count" : 36,
            "type" : "VEC3"
        },
        {
            "bufferView" : 31,
            "componentType" : 5126,
            "count" : 36,
            "type" : "VEC2"
        },
        {
            "bufferView" : 32,
            "componentType" : 5126,
            "count" : 36,
            "type" : "VEC4"
        },
        {
            "bufferView" : 33,
            "componentType" : 5126,
            "count" : 36,
            "max" : [
                1,
                1,
                1
            ],
            "min" : [
                -1,
                -1,
                -1
            ],
            "type" : "VEC3"
        },
        {
            "bufferView" : 34,
            "componentType" : 5126,
            "count" : 36,
            "type" : "VEC3"
        },
        {
            "bufferView" : 35,
            "componentType" : 5126,
            "count" : 36,
            "type" : "VEC2"
        },
        {
            "bufferView" : 36,
            "componentType" : 5126,
            "count" : 36,
            "type" : "VEC4"
        }
    ],
    "bufferViews" : [
        {
            "buffer" : 0,
            "byteLength" : 432,
            "byteOffset" : 0
        },
        {
            "buffer" : 0,
            "byteLength" : 432,
            "byteOffset" : 432
        },
        {
            "buffer" : 0,
            "byteLength" : 288,
            "byteOffset" : 864
        },
        {
            "buffer" : 0,
            "byteLength" : 576,
            "byteOffset" : 1152
        },
        {
            "buffer" : 0,
            "byteLength" : 72,
            "byteOffset" : 1728
        },
        {
            "buffer" : 0,
            "byteLength" : 432,
            "byteOffset" : 1800
        },
        {
            "buffer" : 0,
            "byteLength" : 432,
            "byteOffset" : 2232
        },
        {
            "buffer" : 0,
            "byteLength" : 288,
            "byteOffset" : 2664
        },
        {
            "buffer" : 0,
            "byteLength" : 576,
            "byteOffset" : 2952
        },
        {
            "buffer" : 0,
            "byteLength" : 432,
            "byteOffset" : 3528
        },
        {
            "buffer" : 0,
            "byteLength" : 432,
            "byteOffset" : 3960
        },
        {
            "buffer" : 0,
            "byteLength" : 288,
            "byteOffset" : 4392
        },
        {
            "buffer" : 0,
            "byteLength" : 576,
            "byteOffset" : 4680
        },
        {
            "buffer" : 0,
            "byteLength" : 432,
            "byteOffset" : 5256
        },
        {
            "buffer" : 0,
            "byteLength" : 432,
            "byteOffset" : 5688
        },
        {
            "buffer" : 0,
            "byteLength" : 288,
            "byteOffset" : 6120
        },
        {
            "buffer" : 0,
            "byteLength" : 576,
            "byteOffset" : 6408
        },
        {
            "buffer" : 0,
            "byteLength" : 432,
            "byteOffset" : 6984
        },
        {
            "buffer" : 0,
            "byteLength" : 432,
            "byteOffset" : 7416
        },
        {
            "buffer" : 0,
            "byteLength" : 288,
            "byteOffset" : 7848
        },
        {
            "buffer" : 0,
            "byteLength" : 576,
            "byteOffset" : 8136
        },
        {
            "buffer" : 0,
            "byteLength" : 432,
            "byteOffset" : 8712
        },
        {
            "buffer" : 0,
            "byteLength" : 432,
            "byteOffset" : 9144
        },
        {
            "buffer" : 0,
            "byteLength" : 288,
            "byteOffset" : 9576
        },
        {
            "buffer" : 0,
            "byteLength" : 576,
            "byteOffset" : 9864
        },
        {
            "buffer" : 0,
            "byteLength" : 432,
            "byteOffset" : 10440
        },
        {
            "buffer" : 0,
            "byteLength" : 432,
            "byteOffset" : 10872
        },
        {
            "buffer" : 0,
            "byteLength" : 288,
            "byteOffset" : 11304
        },
        {
            "buffer" : 0,
            "byteLength" : 576,
            "byteOffset" : 11592
        },
        {
            "buffer" : 0,
            "byteLength" : 432,
            "byteOffset" : 12168
        },
        {
            "buffer" : 0,
            "byteLength" : 432,
            "byteOffset" : 12600
        },
        {
            "buffer" : 0,
            "byteLength" : 288,
            "byteOffset" : 13032
        },
        {
            "buffer" : 0,
            "byteLength" : 576,
            "byteOffset" : 13320
        },
        {
            "buffer" : 0,
            "byteLength" : 432,
            "byteOffset" : 13896
        },
        {
            "buffer" : 0,
            "byteLength" : 432,
            "byteOffset" : 14328
        },
        {
            "buffer" : 0,
            "byteLength" : 288,
            "byteOffset" : 14760
        },
        {
            "buffer" : 0,
            "byteLength" : 576,
            "byteOffset" : 15048
        }
    ],
    "buffers" : [
        {
            "byteLength" : 15624,
            "uri" : "untitled.bin"
        }
    ]
}
